<svg xmlns="http://www.w3.org/2000/svg" id="prefix__Layer_2" width="24" height="24" data-name="Layer 2" viewBox="0 0 24 24">
    <g id="prefix__menu-arrow-circle">
        <path id="prefix__Rectangle_6339" d="M0 0H24V24H0z" data-name="Rectangle 6339" transform="rotate(180 12 12)" style="opacity:0;fill:#afafe0"/>
        <path id="prefix__Path_22807" d="M12 2a10 10 0 1 0 10 10A10 10 0 0 0 12 2zm0 16a1 1 0 1 1 1-1 1 1 0 0 1-1 1zm1-5.16V14a1 1 0 0 1-2 0v-2a1 1 0 0 1 1-1 1.5 1.5 0 1 0-1.5-1.5 1 1 0 0 1-2 0 3.5 3.5 0 1 1 4.5 3.34z" data-name="Path 22807" style="fill:#afafe0"/>
    </g>
</svg>
