<svg width="120" height="18" viewBox="0 0 120 18" fill="none" xmlns="http://www.w3.org/2000/svg">
<path d="M5.44316 13.402C5.19053 13.402 4.97808 13.3162 4.80583 13.1446C4.63358 12.973 4.54745 12.7613 4.54745 12.5097V1.64736H0.826809C0.585657 1.64736 0.384696 1.573 0.223928 1.42428C0.0746425 1.26412 0 1.06392 0 0.82368C0 0.583441 0.0746425 0.38896 0.223928 0.24024C0.384696 0.08008 0.585657 0 0.826809 0H10.0423C10.2834 0 10.4787 0.08008 10.6279 0.24024C10.7887 0.38896 10.8691 0.583441 10.8691 0.82368C10.8691 1.06392 10.7887 1.26412 10.6279 1.42428C10.4787 1.573 10.2834 1.64736 10.0423 1.64736H6.33887V12.5097C6.33887 12.7613 6.25275 12.973 6.08049 13.1446C5.90824 13.3162 5.6958 13.402 5.44316 13.402Z" fill="#FF329D"/>
<path d="M14.0169 13.4706C13.1786 13.4706 12.4264 13.2647 11.7604 12.8529C11.0943 12.4296 10.5661 11.8633 10.1757 11.154C9.7967 10.4333 9.60722 9.62105 9.60722 8.71729C9.60722 7.81353 9.81392 7.00129 10.2273 6.28057C10.6522 5.55985 11.2206 4.99357 11.9326 4.58172C12.6561 4.15844 13.4657 3.9468 14.3614 3.9468C15.2571 3.9468 16.0609 4.15844 16.7729 4.58172C17.4849 4.99357 18.0476 5.55985 18.461 6.28057C18.8859 7.00129 19.0983 7.81353 19.0983 8.71729V12.544C19.0983 12.7957 19.0122 13.0073 18.8399 13.1789C18.6792 13.3391 18.4725 13.4191 18.2198 13.4191C17.9672 13.4191 17.7547 13.3391 17.5825 13.1789C17.4217 13.0073 17.3413 12.7957 17.3413 12.544V11.9091C16.9394 12.3895 16.4514 12.7728 15.8772 13.0588C15.3145 13.3333 14.6944 13.4706 14.0169 13.4706ZM14.3614 11.9262C14.947 11.9262 15.4695 11.7889 15.9289 11.5144C16.3882 11.2284 16.7499 10.8451 17.0141 10.3647C17.2782 9.87273 17.4102 9.32361 17.4102 8.71729C17.4102 8.09953 17.2782 7.55041 17.0141 7.06993C16.7499 6.57801 16.3882 6.19477 15.9289 5.92021C15.4695 5.63421 14.947 5.49121 14.3614 5.49121C13.7872 5.49121 13.2647 5.63421 12.7939 5.92021C12.3345 6.19477 11.9671 6.57801 11.6915 7.06993C11.4273 7.55041 11.2953 8.09953 11.2953 8.71729C11.2953 9.32361 11.4273 9.87273 11.6915 10.3647C11.9671 10.8451 12.3345 11.2284 12.7939 11.5144C13.2647 11.7889 13.7872 11.9262 14.3614 11.9262Z" fill="#FF329D"/>
<path d="M22.5917 13.4191C22.339 13.4191 22.1266 13.3391 21.9543 13.1789C21.7936 13.0073 21.7132 12.7957 21.7132 12.544V4.8906C21.7132 4.62748 21.7936 4.41584 21.9543 4.25568C22.1266 4.09552 22.339 4.01544 22.5917 4.01544C22.8558 4.01544 23.0682 4.09552 23.229 4.25568C23.3898 4.41584 23.4701 4.62748 23.4701 4.8906V5.07936C23.8261 4.72472 24.2568 4.44444 24.762 4.23852C25.2673 4.0326 25.8128 3.92964 26.3984 3.92964C27.1908 3.92964 27.897 4.10124 28.5171 4.44444C29.1487 4.7762 29.6425 5.26813 29.9985 5.92021C30.366 6.57229 30.5497 7.37309 30.5497 8.32261V12.544C30.5497 12.7957 30.4636 13.0073 30.2913 13.1789C30.1305 13.3391 29.9238 13.4191 29.6712 13.4191C29.4186 13.4191 29.2061 13.3391 29.0339 13.1789C28.8731 13.0073 28.7927 12.7957 28.7927 12.544V8.32261C28.7927 7.35021 28.5286 6.64093 28.0004 6.19477C27.4836 5.73716 26.8348 5.50837 26.0539 5.50837C25.5716 5.50837 25.1352 5.60561 24.7448 5.80009C24.3544 5.99457 24.0443 6.25769 23.8146 6.58945C23.585 6.90977 23.4701 7.28157 23.4701 7.70485V12.544C23.4701 12.7957 23.3898 13.0073 23.229 13.1789C23.0682 13.3391 22.8558 13.4191 22.5917 13.4191Z" fill="#FF329D"/>
<path d="M37.3819 13.4706C36.5206 13.4706 35.757 13.2704 35.091 12.87C34.4364 12.4582 33.9196 11.8976 33.5407 11.1883C33.1617 10.4676 32.9723 9.64393 32.9723 8.71729C32.9723 7.77921 33.1732 6.95553 33.5751 6.24625C33.9885 5.52553 34.5512 4.96496 35.2632 4.56456C35.9752 4.15272 36.7962 3.9468 37.7264 3.9468C38.6451 3.9468 39.4604 4.15272 40.1724 4.56456C40.8844 4.96496 41.4413 5.52553 41.8432 6.24625C42.2566 6.95553 42.4633 7.77921 42.4633 8.71729V12.4239C42.4633 13.3276 42.2624 14.1456 41.8605 14.8777C41.4585 15.6213 40.8958 16.2105 40.1724 16.6452C39.4604 17.0799 38.6336 17.2973 37.692 17.2973C36.8766 17.2973 36.113 17.1371 35.401 16.8168C34.689 16.4965 34.0861 16.0275 33.5924 15.4097C33.4431 15.2152 33.3857 15.015 33.4201 14.8091C33.466 14.6032 33.5809 14.4373 33.7646 14.3115C33.9713 14.1742 34.1838 14.1284 34.4019 14.1742C34.6316 14.2199 34.8153 14.3343 34.9532 14.5174C35.2632 14.9063 35.6536 15.2095 36.1245 15.4269C36.5953 15.6442 37.1293 15.7529 37.7264 15.7529C38.2776 15.7529 38.7829 15.6213 39.2422 15.3582C39.713 15.0951 40.0863 14.7061 40.3619 14.1913C40.6375 13.6765 40.7753 13.0473 40.7753 12.3037V11.4629C40.4193 12.0807 39.9485 12.5726 39.3628 12.9387C38.7771 13.2933 38.1168 13.4706 37.3819 13.4706ZM37.7264 11.9262C38.3235 11.9262 38.8518 11.7889 39.3111 11.5144C39.7705 11.2398 40.1265 10.8623 40.3791 10.3818C40.6432 9.90133 40.7753 9.34649 40.7753 8.71729C40.7753 8.08809 40.6432 7.53325 40.3791 7.05277C40.1265 6.56085 39.7705 6.17761 39.3111 5.90305C38.8518 5.62849 38.3235 5.49121 37.7264 5.49121C37.1293 5.49121 36.601 5.62849 36.1417 5.90305C35.6824 6.17761 35.3206 6.56085 35.0565 7.05277C34.7924 7.53325 34.6603 8.08809 34.6603 8.71729C34.6603 9.34649 34.7924 9.90133 35.0565 10.3818C35.3206 10.8623 35.6824 11.2398 36.1417 11.5144C36.601 11.7889 37.1293 11.9262 37.7264 11.9262Z" fill="#FF329D"/>
<path d="M49.3501 13.4706C48.4199 13.4706 47.5988 13.2704 46.8868 12.87C46.1749 12.4582 45.6122 11.8976 45.1988 11.1883C44.7969 10.4676 44.5959 9.64393 44.5959 8.71729C44.5959 7.77921 44.7969 6.95553 45.1988 6.24625C45.6122 5.52553 46.1749 4.96496 46.8868 4.56456C47.5988 4.15272 48.4199 3.9468 49.3501 3.9468C50.2687 3.9468 51.0841 4.15272 51.796 4.56456C52.508 4.96496 53.065 5.52553 53.4669 6.24625C53.8803 6.95553 54.087 7.77921 54.087 8.71729C54.087 9.64393 53.886 10.4676 53.4841 11.1883C53.0822 11.8976 52.5252 12.4582 51.8133 12.87C51.1013 13.2704 50.2802 13.4706 49.3501 13.4706ZM49.3501 11.9262C49.9472 11.9262 50.4754 11.7889 50.9348 11.5144C51.3941 11.2398 51.7501 10.8623 52.0027 10.3818C52.2668 9.90133 52.3989 9.34649 52.3989 8.71729C52.3989 8.08809 52.2668 7.53325 52.0027 7.05277C51.7501 6.56085 51.3941 6.17761 50.9348 5.90305C50.4754 5.62849 49.9472 5.49121 49.3501 5.49121C48.7529 5.49121 48.2247 5.62849 47.7653 5.90305C47.306 6.17761 46.9443 6.56085 46.6801 7.05277C46.416 7.53325 46.284 8.08809 46.284 8.71729C46.284 9.34649 46.416 9.90133 46.6801 10.3818C46.9443 10.8623 47.306 11.2398 47.7653 11.5144C48.2247 11.7889 48.7529 11.9262 49.3501 11.9262Z" fill="#FF329D"/>
<path d="M57.5803 13.4191C57.3277 13.4191 57.1152 13.3391 56.943 13.1789C56.7822 13.0073 56.7018 12.7957 56.7018 12.544V4.8906C56.7018 4.62748 56.7822 4.41584 56.943 4.25568C57.1152 4.09552 57.3277 4.01544 57.5803 4.01544C57.8444 4.01544 58.0569 4.09552 58.2177 4.25568C58.3784 4.41584 58.4588 4.62748 58.4588 4.8906V5.07936C58.8148 4.72472 59.2454 4.44444 59.7507 4.23852C60.256 4.0326 60.8014 3.92964 61.3871 3.92964C62.1795 3.92964 62.8857 4.10124 63.5058 4.44444C64.1374 4.7762 64.6312 5.26813 64.9872 5.92021C65.3546 6.57229 65.5384 7.37309 65.5384 8.32261V12.544C65.5384 12.7957 65.4522 13.0073 65.28 13.1789C65.1192 13.3391 64.9125 13.4191 64.6599 13.4191C64.4072 13.4191 64.1948 13.3391 64.0226 13.1789C63.8618 13.0073 63.7814 12.7957 63.7814 12.544V8.32261C63.7814 7.35021 63.5173 6.64093 62.989 6.19477C62.4723 5.73716 61.8235 5.50837 61.0426 5.50837C60.5603 5.50837 60.1239 5.60561 59.7335 5.80009C59.343 5.99457 59.033 6.25769 58.8033 6.58945C58.5737 6.90977 58.4588 7.28157 58.4588 7.70485V12.544C58.4588 12.7957 58.3784 13.0073 58.2177 13.1789C58.0569 13.3391 57.8444 13.4191 57.5803 13.4191Z" fill="#FF329D"/>
<path d="M72.7151 13.4706C71.7849 13.4706 70.9639 13.2704 70.2519 12.87C69.5399 12.4582 68.9772 11.8976 68.5638 11.1883C68.1619 10.4676 67.9609 9.64393 67.9609 8.71729C67.9609 7.77921 68.1619 6.95553 68.5638 6.24625C68.9772 5.52553 69.5399 4.96496 70.2519 4.56456C70.9639 4.15272 71.7849 3.9468 72.7151 3.9468C73.6338 3.9468 74.4491 4.15272 75.1611 4.56456C75.873 4.96496 76.43 5.52553 76.8319 6.24625C77.2453 6.95553 77.452 7.77921 77.452 8.71729C77.452 9.64393 77.2511 10.4676 76.8491 11.1883C76.4472 11.8976 75.8903 12.4582 75.1783 12.87C74.4663 13.2704 73.6452 13.4706 72.7151 13.4706ZM72.7151 11.9262C73.3122 11.9262 73.8405 11.7889 74.2998 11.5144C74.7591 11.2398 75.1151 10.8623 75.3678 10.3818C75.6319 9.90133 75.7639 9.34649 75.7639 8.71729C75.7639 8.08809 75.6319 7.53325 75.3678 7.05277C75.1151 6.56085 74.7591 6.17761 74.2998 5.90305C73.8405 5.62849 73.3122 5.49121 72.7151 5.49121C72.1179 5.49121 71.5897 5.62849 71.1304 5.90305C70.671 6.17761 70.3093 6.56085 70.0452 7.05277C69.7811 7.53325 69.649 8.08809 69.649 8.71729C69.649 9.34649 69.7811 9.90133 70.0452 10.3818C70.3093 10.8623 70.671 11.2398 71.1304 11.5144C71.5897 11.7889 72.1179 11.9262 72.7151 11.9262Z" fill="#FF329D"/>
<path d="M84.3387 13.4706C83.4201 13.4706 82.599 13.2647 81.8755 12.8529C81.1636 12.4296 80.6009 11.8633 80.1875 11.154C79.7855 10.4333 79.5846 9.62105 79.5846 8.71729C79.5846 7.79065 79.7855 6.96697 80.1875 6.24625C80.5894 5.52553 81.1406 4.96496 81.8411 4.56456C82.5416 4.15272 83.3454 3.9468 84.2526 3.9468C85.6077 3.9468 86.733 4.4616 87.6287 5.49121C87.7895 5.67425 87.8469 5.86301 87.801 6.05749C87.7551 6.25197 87.6287 6.42357 87.422 6.57229C87.2613 6.68669 87.0833 6.72673 86.8881 6.69241C86.6928 6.64665 86.5148 6.54369 86.3541 6.38353C85.7914 5.78865 85.0909 5.49121 84.2526 5.49121C83.3684 5.49121 82.6507 5.78865 82.0994 6.38353C81.5482 6.96697 81.2726 7.74489 81.2726 8.71729C81.2726 9.33505 81.399 9.88417 81.6516 10.3647C81.9157 10.8451 82.2775 11.2284 82.7368 11.5144C83.1961 11.7889 83.7301 11.9262 84.3387 11.9262C85.1196 11.9262 85.7512 11.726 86.2335 11.3256C86.4172 11.1769 86.6067 11.0968 86.8019 11.0854C86.9972 11.0625 87.1694 11.114 87.3187 11.2398C87.5139 11.4 87.623 11.583 87.646 11.7889C87.6689 11.9834 87.6 12.1607 87.4393 12.3209C86.6125 13.0874 85.5789 13.4706 84.3387 13.4706Z" fill="#FF329D"/>
<path d="M91.2906 13.4191C91.0379 13.4191 90.8255 13.3391 90.6532 13.1789C90.4925 13.0073 90.4121 12.7957 90.4121 12.544V4.8906C90.4121 4.62748 90.4925 4.41584 90.6532 4.25568C90.8255 4.09552 91.0379 4.01544 91.2906 4.01544C91.5547 4.01544 91.7671 4.09552 91.9279 4.25568C92.0887 4.41584 92.1691 4.62748 92.1691 4.8906V5.07936C92.525 4.72472 92.9557 4.44444 93.461 4.23852C93.9662 4.0326 94.5117 3.92964 95.0973 3.92964C95.8897 3.92964 96.5959 4.10124 97.216 4.44444C97.8476 4.7762 98.3414 5.26813 98.6974 5.92021C99.0649 6.57229 99.2486 7.37309 99.2486 8.32261V12.544C99.2486 12.7957 99.1625 13.0073 98.9902 13.1789C98.8295 13.3391 98.6228 13.4191 98.3701 13.4191C98.1175 13.4191 97.9051 13.3391 97.7328 13.1789C97.572 13.0073 97.4917 12.7957 97.4917 12.544V8.32261C97.4917 7.35021 97.2275 6.64093 96.6993 6.19477C96.1825 5.73716 95.5337 5.50837 94.7528 5.50837C94.2705 5.50837 93.8342 5.60561 93.4437 5.80009C93.0533 5.99457 92.7432 6.25769 92.5136 6.58945C92.2839 6.90977 92.1691 7.28157 92.1691 7.70485V12.544C92.1691 12.7957 92.0887 13.0073 91.9279 13.1789C91.7671 13.3391 91.5547 13.4191 91.2906 13.4191ZM91.2906 9.98713C91.0379 9.98713 90.8255 9.90705 90.6532 9.74689C90.4925 9.57529 90.4121 9.36365 90.4121 9.11197V0.875161C90.4121 0.612041 90.4925 0.4004 90.6532 0.24024C90.8255 0.08008 91.0379 0 91.2906 0C91.5547 0 91.7671 0.08008 91.9279 0.24024C92.0887 0.4004 92.1691 0.612041 92.1691 0.875161V9.11197C92.1691 9.36365 92.0887 9.57529 91.9279 9.74689C91.7671 9.90705 91.5547 9.98713 91.2906 9.98713Z" fill="#FF329D"/>
<path d="M106.597 13.4706C105.644 13.4706 104.794 13.2704 104.048 12.87C103.313 12.4582 102.733 11.8976 102.308 11.1883C101.895 10.4676 101.688 9.64393 101.688 8.71729C101.688 7.77921 101.883 6.95553 102.274 6.24625C102.676 5.52553 103.227 4.96496 103.927 4.56456C104.628 4.15272 105.432 3.9468 106.339 3.9468C107.235 3.9468 108.004 4.147 108.647 4.5474C109.29 4.93636 109.778 5.47976 110.111 6.17761C110.456 6.86401 110.628 7.65909 110.628 8.56285C110.628 8.78021 110.553 8.96325 110.404 9.11197C110.255 9.24925 110.065 9.31789 109.836 9.31789H103.29C103.416 10.1072 103.778 10.7536 104.375 11.257C104.984 11.7489 105.724 11.9949 106.597 11.9949C106.953 11.9949 107.315 11.9319 107.682 11.8061C108.061 11.6688 108.366 11.5144 108.595 11.3428C108.768 11.2169 108.951 11.154 109.147 11.154C109.353 11.1426 109.531 11.1998 109.68 11.3256C109.876 11.4972 109.979 11.686 109.991 11.8919C110.002 12.0978 109.91 12.2751 109.715 12.4239C109.325 12.7327 108.836 12.9844 108.251 13.1789C107.677 13.3734 107.125 13.4706 106.597 13.4706ZM106.339 5.42256C105.489 5.42256 104.806 5.65708 104.289 6.12613C103.772 6.59517 103.445 7.20149 103.307 7.94509H109.043C108.94 7.21293 108.658 6.61233 108.199 6.14329C107.74 5.66281 107.12 5.42256 106.339 5.42256Z" fill="#FF329D"/>
<path d="M116.297 13.4706C115.493 13.4706 114.746 13.3505 114.057 13.1103C113.38 12.8586 112.852 12.544 112.473 12.1665C112.3 11.9834 112.226 11.7775 112.249 11.5487C112.283 11.3085 112.398 11.114 112.593 10.9653C112.823 10.7822 113.047 10.7079 113.265 10.7422C113.495 10.7651 113.69 10.8623 113.851 11.0339C114.046 11.2513 114.356 11.4572 114.781 11.6517C115.217 11.8347 115.699 11.9262 116.228 11.9262C116.894 11.9262 117.399 11.8175 117.743 11.6002C118.099 11.3828 118.283 11.1025 118.295 10.7593C118.306 10.4161 118.14 10.1187 117.795 9.86701C117.462 9.61533 116.848 9.40941 115.952 9.24925C114.792 9.02045 113.948 8.67725 113.42 8.21965C112.903 7.76205 112.645 7.20149 112.645 6.53797C112.645 5.95453 112.817 5.47404 113.162 5.09652C113.506 4.70756 113.948 4.42156 114.488 4.23852C115.028 4.04404 115.59 3.9468 116.176 3.9468C116.934 3.9468 117.606 4.06692 118.191 4.30716C118.777 4.5474 119.242 4.87916 119.587 5.30244C119.747 5.48548 119.822 5.67997 119.811 5.88589C119.799 6.08037 119.701 6.24625 119.518 6.38353C119.334 6.50937 119.116 6.54941 118.863 6.50365C118.611 6.45789 118.398 6.35493 118.226 6.19477C117.939 5.92021 117.629 5.73144 117.296 5.62849C116.963 5.52553 116.578 5.47404 116.142 5.47404C115.636 5.47404 115.206 5.55984 114.85 5.73145C114.505 5.90305 114.333 6.15473 114.333 6.48649C114.333 6.69241 114.385 6.88117 114.488 7.05277C114.603 7.21293 114.821 7.36165 115.142 7.49893C115.464 7.62477 115.935 7.75061 116.555 7.87645C117.853 8.12813 118.748 8.48849 119.242 8.95753C119.747 9.41513 120 9.98141 120 10.6564C120 11.1826 119.856 11.6574 119.569 12.0807C119.294 12.5039 118.88 12.8414 118.329 13.0931C117.789 13.3448 117.112 13.4706 116.297 13.4706Z" fill="#FF329D"/>
</svg>
