<svg width="153" height="22" viewBox="0 0 153 22" fill="none" xmlns="http://www.w3.org/2000/svg">
<path d="M6.92302 17.0456C6.6017 17.0456 6.3315 16.9365 6.11241 16.7183C5.89333 16.5 5.78379 16.2308 5.78379 15.9107V2.09524H1.0516C0.744882 2.09524 0.489285 2.00066 0.284808 1.81151C0.0949359 1.6078 0 1.35317 0 1.04762C0 0.742063 0.0949359 0.494709 0.284808 0.305555C0.489285 0.101852 0.744882 0 1.0516 0H12.7725C13.0793 0 13.3275 0.101852 13.5174 0.305555C13.7219 0.494709 13.8241 0.742063 13.8241 1.04762C13.8241 1.35317 13.7219 1.6078 13.5174 1.81151C13.3275 2.00066 13.0793 2.09524 12.7725 2.09524H8.06225V15.9107C8.06225 16.2308 7.95271 16.5 7.73363 16.7183C7.51455 16.9365 7.24434 17.0456 6.92302 17.0456Z" fill="#7A79A5"/>
<path d="M17.8277 17.1329C16.7615 17.1329 15.8048 16.871 14.9577 16.3472C14.1106 15.8089 13.4387 15.0886 12.9422 14.1865C12.4602 13.2698 12.2192 12.2368 12.2192 11.0873C12.2192 9.93783 12.4821 8.90476 13.0079 7.9881C13.5483 7.07143 14.2713 6.35119 15.1768 5.82738C16.097 5.28902 17.1266 5.01984 18.2659 5.01984C19.4051 5.01984 20.4275 5.28902 21.333 5.82738C22.2386 6.35119 22.9542 7.07143 23.48 7.9881C24.0205 8.90476 24.2907 9.93783 24.2907 11.0873V15.9544C24.2907 16.2745 24.1811 16.5437 23.962 16.7619C23.7576 16.9656 23.4947 17.0675 23.1733 17.0675C22.852 17.0675 22.5818 16.9656 22.3627 16.7619C22.1582 16.5437 22.056 16.2745 22.056 15.9544V15.1468C21.5448 15.7579 20.9241 16.2454 20.1938 16.6091C19.4781 16.9583 18.6894 17.1329 17.8277 17.1329ZM18.2659 15.1687C19.0108 15.1687 19.6753 14.994 20.2595 14.6448C20.8437 14.2811 21.3038 13.7937 21.6397 13.1825C21.9757 12.5569 22.1436 11.8585 22.1436 11.0873C22.1436 10.3016 21.9757 9.60317 21.6397 8.99206C21.3038 8.3664 20.8437 7.87897 20.2595 7.52976C19.6753 7.16601 19.0108 6.98413 18.2659 6.98413C17.5356 6.98413 16.871 7.16601 16.2722 7.52976C15.688 7.87897 15.2206 8.3664 14.8701 8.99206C14.5342 9.60317 14.3662 10.3016 14.3662 11.0873C14.3662 11.8585 14.5342 12.5569 14.8701 13.1825C15.2206 13.7937 15.688 14.2811 16.2722 14.6448C16.871 14.994 17.5356 15.1687 18.2659 15.1687Z" fill="#7A79A5"/>
<path d="M28.7338 17.0675C28.4124 17.0675 28.1422 16.9656 27.9232 16.7619C27.7187 16.5437 27.6164 16.2745 27.6164 15.9544V6.22024C27.6164 5.88558 27.7187 5.6164 27.9232 5.4127C28.1422 5.20899 28.4124 5.10714 28.7338 5.10714C29.0697 5.10714 29.3399 5.20899 29.5444 5.4127C29.7488 5.6164 29.8511 5.88558 29.8511 6.22024V6.46032C30.3039 6.00926 30.8516 5.65278 31.4942 5.39087C32.1368 5.12897 32.8306 4.99801 33.5755 4.99801C34.5833 4.99801 35.4815 5.21627 36.2702 5.65278C37.0735 6.07474 37.7016 6.7004 38.1543 7.52976C38.6217 8.35913 38.8554 9.37765 38.8554 10.5853V15.9544C38.8554 16.2745 38.7458 16.5437 38.5268 16.7619C38.3223 16.9656 38.0594 17.0675 37.7381 17.0675C37.4167 17.0675 37.1465 16.9656 36.9275 16.7619C36.723 16.5437 36.6207 16.2745 36.6207 15.9544V10.5853C36.6207 9.34855 36.2848 8.44643 35.613 7.87897C34.9557 7.29696 34.1305 7.00595 33.1373 7.00595C32.5239 7.00595 31.9689 7.12963 31.4723 7.37698C30.9757 7.62434 30.5814 7.95899 30.2892 8.38095C29.9971 8.78836 29.8511 9.26124 29.8511 9.7996V15.9544C29.8511 16.2745 29.7488 16.5437 29.5444 16.7619C29.3399 16.9656 29.0697 17.0675 28.7338 17.0675Z" fill="#7A79A5"/>
<path d="M47.5451 17.1329C46.4497 17.1329 45.4784 16.8783 44.6313 16.369C43.7988 15.8452 43.1415 15.1323 42.6596 14.2302C42.1776 13.3135 41.9366 12.2659 41.9366 11.0873C41.9366 9.89418 42.1922 8.84656 42.7034 7.94444C43.2292 7.02778 43.9448 6.31481 44.8504 5.80555C45.7559 5.28175 46.8002 5.01984 47.9833 5.01984C49.1517 5.01984 50.1887 5.28175 51.0943 5.80555C51.9998 6.31481 52.7082 7.02778 53.2194 7.94444C53.7452 8.84656 54.0081 9.89418 54.0081 11.0873V15.8016C54.0081 16.9511 53.7525 17.9914 53.2413 18.9226C52.7301 19.8684 52.0144 20.6177 51.0943 21.1706C50.1887 21.7235 49.1371 22 47.9395 22C46.9025 22 45.9312 21.7963 45.0257 21.3889C44.1201 20.9815 43.3533 20.3849 42.7253 19.5992C42.5354 19.3519 42.4624 19.0972 42.5062 18.8353C42.5646 18.5734 42.7107 18.3624 42.9444 18.2024C43.2073 18.0278 43.4775 17.9696 43.755 18.0278C44.0471 18.086 44.2808 18.2315 44.456 18.4643C44.8504 18.959 45.347 19.3446 45.9458 19.621C46.5446 19.8975 47.2238 20.0357 47.9833 20.0357C48.6843 20.0357 49.327 19.8684 49.9112 19.5337C50.51 19.1991 50.9847 18.7044 51.3352 18.0496C51.6858 17.3948 51.861 16.5946 51.861 15.6488V14.5794C51.4083 15.3651 50.8094 15.9907 50.0646 16.4564C49.3197 16.9074 48.4799 17.1329 47.5451 17.1329ZM47.9833 15.1687C48.7428 15.1687 49.4146 14.994 49.9988 14.6448C50.5831 14.2956 51.0358 13.8155 51.3572 13.2044C51.6931 12.5933 51.861 11.8876 51.861 11.0873C51.861 10.287 51.6931 9.58135 51.3572 8.97024C51.0358 8.34458 50.5831 7.85714 49.9988 7.50794C49.4146 7.15873 48.7428 6.98413 47.9833 6.98413C47.2238 6.98413 46.5519 7.15873 45.9677 7.50794C45.3835 7.85714 44.9234 8.34458 44.5875 8.97024C44.2516 9.58135 44.0836 10.287 44.0836 11.0873C44.0836 11.8876 44.2516 12.5933 44.5875 13.2044C44.9234 13.8155 45.3835 14.2956 45.9677 14.6448C46.5519 14.994 47.2238 15.1687 47.9833 15.1687Z" fill="#7A79A5"/>
<path d="M62.7671 17.1329C61.584 17.1329 60.5398 16.8783 59.6342 16.369C58.7287 15.8452 58.013 15.1323 57.4872 14.2302C56.976 13.3135 56.7204 12.2659 56.7204 11.0873C56.7204 9.89418 56.976 8.84656 57.4872 7.94444C58.013 7.02778 58.7287 6.31481 59.6342 5.80555C60.5398 5.28175 61.584 5.01984 62.7671 5.01984C63.9355 5.01984 64.9725 5.28175 65.8781 5.80555C66.7836 6.31481 67.492 7.02778 68.0032 7.94444C68.529 8.84656 68.7919 9.89418 68.7919 11.0873C68.7919 12.2659 68.5363 13.3135 68.0251 14.2302C67.5139 15.1323 66.8055 15.8452 65.9 16.369C64.9944 16.8783 63.9501 17.1329 62.7671 17.1329ZM62.7671 15.1687C63.5266 15.1687 64.1984 14.994 64.7827 14.6448C65.3669 14.2956 65.8196 13.8155 66.141 13.2044C66.4769 12.5933 66.6449 11.8876 66.6449 11.0873C66.6449 10.287 66.4769 9.58135 66.141 8.97024C65.8196 8.34458 65.3669 7.85714 64.7827 7.50794C64.1984 7.15873 63.5266 6.98413 62.7671 6.98413C62.0076 6.98413 61.3358 7.15873 60.7515 7.50794C60.1673 7.85714 59.7072 8.34458 59.3713 8.97024C59.0354 9.58135 58.8674 10.287 58.8674 11.0873C58.8674 11.8876 59.0354 12.5933 59.3713 13.2044C59.7072 13.8155 60.1673 14.2956 60.7515 14.6448C61.3358 14.994 62.0076 15.1687 62.7671 15.1687Z" fill="#7A79A5"/>
<path d="M73.235 17.0675C72.9137 17.0675 72.6435 16.9656 72.4244 16.7619C72.2199 16.5437 72.1177 16.2745 72.1177 15.9544V6.22024C72.1177 5.88558 72.2199 5.6164 72.4244 5.4127C72.6435 5.20899 72.9137 5.10714 73.235 5.10714C73.5709 5.10714 73.8411 5.20899 74.0456 5.4127C74.2501 5.6164 74.3523 5.88558 74.3523 6.22024V6.46032C74.8051 6.00926 75.3528 5.65278 75.9954 5.39087C76.6381 5.12897 77.3318 4.99801 78.0767 4.99801C79.0845 4.99801 79.9827 5.21627 80.7714 5.65278C81.5747 6.07474 82.2028 6.7004 82.6556 7.52976C83.1229 8.35913 83.3566 9.37765 83.3566 10.5853V15.9544C83.3566 16.2745 83.2471 16.5437 83.028 16.7619C82.8235 16.9656 82.5606 17.0675 82.2393 17.0675C81.918 17.0675 81.6478 16.9656 81.4287 16.7619C81.2242 16.5437 81.122 16.2745 81.122 15.9544V10.5853C81.122 9.34855 80.786 8.44643 80.1142 7.87897C79.4569 7.29696 78.6317 7.00595 77.6386 7.00595C77.0251 7.00595 76.4701 7.12963 75.9735 7.37698C75.4769 7.62434 75.0826 7.95899 74.7905 8.38095C74.4984 8.78836 74.3523 9.26124 74.3523 9.7996V15.9544C74.3523 16.2745 74.2501 16.5437 74.0456 16.7619C73.8411 16.9656 73.5709 17.0675 73.235 17.0675Z" fill="#7A79A5"/>
<path d="M92.4845 17.1329C91.3015 17.1329 90.2572 16.8783 89.3516 16.369C88.4461 15.8452 87.7304 15.1323 87.2046 14.2302C86.6934 13.3135 86.4378 12.2659 86.4378 11.0873C86.4378 9.89418 86.6934 8.84656 87.2046 7.94444C87.7304 7.02778 88.4461 6.31481 89.3516 5.80555C90.2572 5.28175 91.3015 5.01984 92.4845 5.01984C93.6529 5.01984 94.6899 5.28175 95.5955 5.80555C96.501 6.31481 97.2094 7.02778 97.7206 7.94444C98.2464 8.84656 98.5093 9.89418 98.5093 11.0873C98.5093 12.2659 98.2537 13.3135 97.7425 14.2302C97.2313 15.1323 96.5229 15.8452 95.6174 16.369C94.7118 16.8783 93.6675 17.1329 92.4845 17.1329ZM92.4845 15.1687C93.244 15.1687 93.9158 14.994 94.5001 14.6448C95.0843 14.2956 95.5371 13.8155 95.8584 13.2044C96.1943 12.5933 96.3623 11.8876 96.3623 11.0873C96.3623 10.287 96.1943 9.58135 95.8584 8.97024C95.5371 8.34458 95.0843 7.85714 94.5001 7.50794C93.9158 7.15873 93.244 6.98413 92.4845 6.98413C91.725 6.98413 91.0532 7.15873 90.4689 7.50794C89.8847 7.85714 89.4246 8.34458 89.0887 8.97024C88.7528 9.58135 88.5848 10.287 88.5848 11.0873C88.5848 11.8876 88.7528 12.5933 89.0887 13.2044C89.4246 13.8155 89.8847 14.2956 90.4689 14.6448C91.0532 14.994 91.725 15.1687 92.4845 15.1687Z" fill="#7A79A5"/>
<path d="M107.268 17.1329C106.1 17.1329 105.056 16.871 104.135 16.3472C103.23 15.8089 102.514 15.0886 101.988 14.1865C101.477 13.2698 101.222 12.2368 101.222 11.0873C101.222 9.90873 101.477 8.86111 101.988 7.94444C102.5 7.02778 103.201 6.31481 104.092 5.80555C104.983 5.28175 106.005 5.01984 107.159 5.01984C108.882 5.01984 110.314 5.6746 111.453 6.98413C111.657 7.21693 111.73 7.45701 111.672 7.70436C111.613 7.95172 111.453 8.16997 111.19 8.35913C110.985 8.50463 110.759 8.55555 110.511 8.5119C110.262 8.4537 110.036 8.32275 109.832 8.11905C109.116 7.36243 108.225 6.98413 107.159 6.98413C106.034 6.98413 105.121 7.36243 104.42 8.11905C103.719 8.86111 103.369 9.85053 103.369 11.0873C103.369 11.873 103.529 12.5714 103.851 13.1825C104.187 13.7937 104.647 14.2811 105.231 14.6448C105.815 14.994 106.494 15.1687 107.268 15.1687C108.261 15.1687 109.065 14.914 109.678 14.4048C109.912 14.2156 110.153 14.1138 110.401 14.0992C110.65 14.0701 110.869 14.1356 111.058 14.2956C111.307 14.4993 111.446 14.7321 111.475 14.994C111.504 15.2414 111.416 15.4669 111.212 15.6706C110.16 16.6455 108.846 17.1329 107.268 17.1329Z" fill="#7A79A5"/>
<path d="M116.11 17.0675C115.789 17.0675 115.519 16.9656 115.3 16.7619C115.095 16.5437 114.993 16.2745 114.993 15.9544V6.22024C114.993 5.88558 115.095 5.6164 115.3 5.4127C115.519 5.20899 115.789 5.10714 116.11 5.10714C116.446 5.10714 116.716 5.20899 116.921 5.4127C117.125 5.6164 117.228 5.88558 117.228 6.22024V6.46032C117.68 6.00926 118.228 5.65278 118.871 5.39087C119.513 5.12897 120.207 4.99801 120.952 4.99801C121.96 4.99801 122.858 5.21627 123.647 5.65278C124.45 6.07474 125.078 6.7004 125.531 7.52976C125.998 8.35913 126.232 9.37765 126.232 10.5853V15.9544C126.232 16.2745 126.122 16.5437 125.903 16.7619C125.699 16.9656 125.436 17.0675 125.115 17.0675C124.793 17.0675 124.523 16.9656 124.304 16.7619C124.099 16.5437 123.997 16.2745 123.997 15.9544V10.5853C123.997 9.34855 123.661 8.44643 122.989 7.87897C122.332 7.29696 121.507 7.00595 120.514 7.00595C119.9 7.00595 119.345 7.12963 118.849 7.37698C118.352 7.62434 117.958 7.95899 117.666 8.38095C117.374 8.78836 117.228 9.26124 117.228 9.7996V15.9544C117.228 16.2745 117.125 16.5437 116.921 16.7619C116.716 16.9656 116.446 17.0675 116.11 17.0675ZM116.11 12.7024C115.789 12.7024 115.519 12.6005 115.3 12.3968C115.095 12.1786 114.993 11.9094 114.993 11.5893V1.1131C114.993 0.778439 115.095 0.509259 115.3 0.305555C115.519 0.101852 115.789 0 116.11 0C116.446 0 116.716 0.101852 116.921 0.305555C117.125 0.509259 117.228 0.778439 117.228 1.1131V11.5893C117.228 11.9094 117.125 12.1786 116.921 12.3968C116.716 12.6005 116.446 12.7024 116.11 12.7024Z" fill="#7A79A5"/>
<path d="M135.578 17.1329C134.366 17.1329 133.285 16.8783 132.336 16.369C131.401 15.8452 130.664 15.1323 130.123 14.2302C129.597 13.3135 129.334 12.2659 129.334 11.0873C129.334 9.89418 129.583 8.84656 130.079 7.94444C130.59 7.02778 131.292 6.31481 132.183 5.80555C133.073 5.28175 134.096 5.01984 135.25 5.01984C136.389 5.01984 137.367 5.27447 138.185 5.78373C139.003 6.27844 139.624 6.96958 140.048 7.85714C140.486 8.73016 140.705 9.7414 140.705 10.8909C140.705 11.1673 140.61 11.4001 140.42 11.5893C140.23 11.7639 139.989 11.8512 139.697 11.8512H131.372C131.533 12.8552 131.993 13.6772 132.752 14.3175C133.526 14.9431 134.468 15.256 135.578 15.256C136.031 15.256 136.491 15.1759 136.959 15.0159C137.441 14.8413 137.828 14.6448 138.12 14.4266C138.339 14.2665 138.572 14.1865 138.821 14.1865C139.084 14.172 139.31 14.2447 139.5 14.4048C139.748 14.623 139.88 14.8631 139.894 15.125C139.909 15.3869 139.792 15.6124 139.544 15.8016C139.047 16.1944 138.426 16.5146 137.681 16.7619C136.951 17.0093 136.25 17.1329 135.578 17.1329ZM135.25 6.89682C134.169 6.89682 133.3 7.1951 132.643 7.79167C131.985 8.38823 131.569 9.15939 131.394 10.1052H138.689C138.558 9.17394 138.2 8.41005 137.616 7.81349C137.032 7.20238 136.243 6.89682 135.25 6.89682Z" fill="#7A79A5"/>
<path d="M147.915 17.1329C146.892 17.1329 145.943 16.9802 145.067 16.6746C144.205 16.3545 143.533 15.9544 143.051 15.4742C142.832 15.2414 142.737 14.9795 142.766 14.6885C142.81 14.3829 142.956 14.1356 143.204 13.9464C143.497 13.7136 143.781 13.619 144.059 13.6627C144.351 13.6918 144.599 13.8155 144.804 14.0337C145.052 14.3102 145.446 14.5721 145.987 14.8194C146.542 15.0522 147.155 15.1687 147.827 15.1687C148.674 15.1687 149.317 15.0304 149.755 14.754C150.208 14.4775 150.441 14.121 150.456 13.6845C150.471 13.248 150.259 12.8697 149.821 12.5496C149.397 12.2295 148.616 11.9676 147.477 11.7639C146.001 11.4729 144.928 11.0364 144.256 10.4544C143.599 9.87235 143.27 9.15939 143.27 8.31548C143.27 7.57341 143.489 6.9623 143.927 6.48214C144.366 5.98743 144.928 5.62368 145.614 5.39087C146.301 5.14352 147.016 5.01984 147.761 5.01984C148.725 5.01984 149.58 5.17262 150.325 5.47817C151.07 5.78373 151.661 6.20569 152.099 6.74405C152.304 6.97685 152.399 7.22421 152.384 7.48611C152.369 7.73346 152.245 7.94444 152.012 8.11905C151.778 8.2791 151.5 8.33003 151.179 8.27183C150.858 8.21362 150.588 8.08267 150.368 7.87897C150.003 7.52976 149.609 7.28968 149.185 7.15873C148.762 7.02778 148.273 6.9623 147.718 6.9623C147.075 6.9623 146.527 7.07143 146.074 7.28968C145.636 7.50794 145.417 7.82804 145.417 8.25C145.417 8.5119 145.483 8.75198 145.614 8.97024C145.76 9.17394 146.038 9.3631 146.447 9.5377C146.856 9.69775 147.455 9.8578 148.243 10.0179C149.894 10.338 151.033 10.7963 151.661 11.3929C152.304 11.9749 152.625 12.6951 152.625 13.5536C152.625 14.2229 152.442 14.8267 152.077 15.3651C151.727 15.9034 151.201 16.3327 150.5 16.6528C149.813 16.9729 148.952 17.1329 147.915 17.1329Z" fill="#7A79A5"/>
</svg>
