<svg width="20" height="20" viewBox="0 0 20 20" fill="none" xmlns="http://www.w3.org/2000/svg">
<path opacity="0.5" d="M10 19.44C8.13315 19.44 6.30822 18.8864 4.75598 17.8493C3.20375 16.8121 1.99393 15.3379 1.27951 13.6132C0.565094 11.8884 0.378171 9.99055 0.742377 8.15956C1.10658 6.32857 2.00556 4.6467 3.32563 3.32664C4.6457 2.00657 6.32757 1.10759 8.15855 0.743384C9.98954 0.379178 11.8874 0.566101 13.6122 1.28052C15.3369 1.99493 16.8111 3.20475 17.8482 4.75699C18.8854 6.30922 19.439 8.13416 19.439 10.001C19.439 11.2406 19.1949 12.468 18.7205 13.6132C18.2462 14.7584 17.5509 15.7989 16.6744 16.6754C15.7979 17.5519 14.7574 18.2472 13.6122 18.7215C12.467 19.1959 11.2396 19.44 10 19.44ZM14.248 5.75302L8.11301 8.11302L5.75301 14.249L11.889 11.889L14.248 5.75302ZM10 10.945C9.8133 10.945 9.63079 10.8897 9.47555 10.7859C9.32031 10.6822 9.19932 10.5348 9.12787 10.3623C9.05642 10.1898 9.03772 9.99997 9.07415 9.81685C9.11057 9.63373 9.20048 9.46553 9.3325 9.33351C9.46452 9.20149 9.63273 9.11158 9.81584 9.07515C9.99896 9.03873 10.1888 9.05742 10.3613 9.12887C10.5338 9.20032 10.6812 9.32132 10.7849 9.47656C10.8886 9.6318 10.944 9.81431 10.944 10.001C10.9437 10.2512 10.8442 10.4911 10.6672 10.6679C10.4902 10.8447 10.2502 10.944 10 10.944V10.945Z" fill="white"/>
</svg>
