<svg width="40" height="40" viewBox="0 0 40 40" fill="none" xmlns="http://www.w3.org/2000/svg">
<path d="M14.5681 32.5638H4.71652C3.46562 32.5638 2.26596 32.0669 1.38144 31.1824C0.496918 30.2978 0 29.0982 0 27.8473L0 8.14108C0 6.89018 0.496918 5.69052 1.38144 4.806C2.26596 3.92148 3.46562 3.42456 4.71652 3.42456H29.5647C30.8156 3.42456 32.0153 3.92148 32.8998 4.806C33.7843 5.69052 34.2812 6.89018 34.2812 8.14108V14.9967C34.2812 15.3376 34.1458 15.6645 33.9048 15.9055C33.6638 16.1466 33.3368 16.282 32.996 16.282C32.6551 16.282 32.3282 16.1466 32.0872 15.9055C31.8461 15.6645 31.7107 15.3376 31.7107 14.9967V8.14108C31.7099 7.5732 31.484 7.02881 31.0825 6.62726C30.6809 6.22571 30.1365 5.99977 29.5686 5.99899H4.71652C4.14864 5.99977 3.60425 6.22571 3.2027 6.62726C2.80115 7.02881 2.57521 7.5732 2.57443 8.14108V27.8512C2.57599 28.4186 2.80227 28.9622 3.20374 29.3631C3.6052 29.764 4.14915 29.9896 4.71652 29.9903H14.5681C14.909 29.9903 15.2359 30.1258 15.477 30.3668C15.718 30.6078 15.8534 30.9347 15.8534 31.2756C15.8534 31.6165 15.718 31.9434 15.477 32.1844C15.2359 32.4254 14.909 32.5609 14.5681 32.5609V32.5638Z" fill="#7A79A5"/>
<path d="M32.992 12.8535H1.28525C0.944381 12.8535 0.617473 12.7181 0.376441 12.477C0.13541 12.236 0 11.9091 0 11.5682C0 11.2273 0.13541 10.9004 0.376441 10.6594C0.617473 10.4184 0.944381 10.283 1.28525 10.283H32.992C33.3329 10.283 33.6598 10.4184 33.9009 10.6594C34.1419 10.9004 34.2773 11.2273 34.2773 11.5682C34.2773 11.9091 34.1419 12.236 33.9009 12.477C33.6598 12.7181 33.3329 12.8535 32.992 12.8535Z" fill="#7A79A5"/>
<path d="M8.14096 9.42616C7.80017 9.4259 7.47341 9.29041 7.23244 9.04943C6.99146 8.80846 6.85597 8.4817 6.85571 8.14091V1.28525C6.85571 0.944381 6.99112 0.617473 7.23215 0.376441C7.47318 0.13541 7.80009 0 8.14096 0C8.48183 0 8.80874 0.13541 9.04977 0.376441C9.2908 0.617473 9.42621 0.944381 9.42621 1.28525V8.14091C9.42595 8.4817 9.29046 8.80846 9.04949 9.04943C8.80851 9.29041 8.48175 9.4259 8.14096 9.42616Z" fill="#7A79A5"/>
<path d="M26.1363 9.42616C25.7955 9.4259 25.4688 9.29041 25.2278 9.04943C24.9868 8.80846 24.8513 8.4817 24.8511 8.14091V1.28525C24.8511 0.944381 24.9865 0.617473 25.2275 0.376441C25.4686 0.13541 25.7955 0 26.1363 0C26.4772 0 26.8041 0.13541 27.0451 0.376441C27.2862 0.617473 27.4216 0.944381 27.4216 1.28525V8.14091C27.4213 8.4817 27.2858 8.80846 27.0448 9.04943C26.8039 9.29041 26.4771 9.4259 26.1363 9.42616Z" fill="#7A79A5"/>
<path d="M29.992 40.0001C28.0128 40.0001 26.0781 39.4132 24.4325 38.3136C22.7869 37.2141 21.5042 35.6512 20.7468 33.8227C19.9894 31.9942 19.7913 29.9821 20.1774 28.041C20.5635 26.0998 21.5166 24.3168 22.9161 22.9173C24.3155 21.5178 26.0986 20.5647 28.0398 20.1786C29.9809 19.7925 31.9929 19.9907 33.8215 20.7481C35.65 21.5055 37.2128 22.7881 38.3124 24.4337C39.412 26.0793 39.9989 28.014 39.9989 29.9932C39.9947 32.6459 38.9391 35.1888 37.0633 37.0645C35.1876 38.9403 32.6447 39.9959 29.992 40.0001ZM29.992 22.2955C28.4695 22.2955 26.9812 22.7469 25.7154 23.5928C24.4495 24.4386 23.4628 25.6408 22.8802 27.0474C22.2976 28.454 22.1451 30.0017 22.4422 31.495C22.7392 32.9882 23.4723 34.3598 24.5489 35.4363C25.6254 36.5129 26.997 37.246 28.4902 37.543C29.9835 37.8401 31.5312 37.6876 32.9378 37.105C34.3444 36.5224 35.5466 35.5357 36.3924 34.2699C37.2383 33.004 37.6898 31.5157 37.6898 29.9932C37.6877 27.9522 36.876 25.9953 35.4329 24.552C33.9898 23.1087 32.033 22.2968 29.992 22.2945V22.2955Z" fill="#7A79A5"/>
<path d="M33.1952 33.1951C33.0132 33.377 32.7665 33.4793 32.5092 33.4794C32.2519 33.4796 32.0051 33.3775 31.8229 33.1958L26.7904 28.1633C26.6956 28.0743 26.6196 27.9671 26.5669 27.8481C26.5143 27.7292 26.4861 27.6008 26.484 27.4708C26.482 27.3407 26.5061 27.2115 26.5549 27.091C26.6037 26.9704 26.6763 26.8608 26.7683 26.7689C26.8602 26.6769 26.9698 26.6043 27.0904 26.5555C27.2109 26.5067 27.3401 26.4826 27.4702 26.4846C27.6002 26.4867 27.7286 26.5149 27.8475 26.5675C27.9665 26.6202 28.0737 26.6962 28.1627 26.791L33.1952 31.8235C33.3768 32.0055 33.4788 32.2522 33.4788 32.5093C33.4788 32.7664 33.3768 33.0131 33.1952 33.1951Z" fill="#7A79A5"/>
<path d="M33.1952 28.1621L28.1627 33.1946C28.0737 33.2894 27.9665 33.3654 27.8475 33.4181C27.7286 33.4707 27.6002 33.4989 27.4702 33.501C27.3401 33.503 27.2109 33.4789 27.0904 33.4301C26.9698 33.3813 26.8602 33.3087 26.7683 33.2167C26.6763 33.1248 26.6037 33.0152 26.5549 32.8946C26.5061 32.7741 26.482 32.6449 26.484 32.5148C26.4861 32.3848 26.5143 32.2564 26.5669 32.1375C26.6196 32.0185 26.6956 31.9113 26.7904 31.8223L31.8229 26.7898C31.912 26.6949 32.0191 26.6189 32.1381 26.5663C32.2571 26.5137 32.3854 26.4855 32.5155 26.4834C32.6455 26.4813 32.7747 26.5054 32.8953 26.5543C33.0159 26.6031 33.1254 26.6756 33.2174 26.7676C33.3094 26.8596 33.3819 26.9692 33.4307 27.0897C33.4796 27.2103 33.5037 27.3395 33.5016 27.4695C33.4995 27.5996 33.4713 27.7279 33.4187 27.8469C33.3661 27.9659 33.2901 28.073 33.1952 28.1621Z" fill="#7A79A5"/>
</svg>
